<?xml version="1.0" encoding="UTF-8" standalone="no"?>
<svg
   xmlns:dc="http://purl.org/dc/elements/1.1/"
   xmlns:cc="http://creativecommons.org/ns#"
   xmlns:rdf="http://www.w3.org/1999/02/22-rdf-syntax-ns#"
   xmlns:svg="http://www.w3.org/2000/svg"
   xmlns="http://www.w3.org/2000/svg"
   xmlns:xlink="http://www.w3.org/1999/xlink"
   xmlns:sodipodi="http://sodipodi.sourceforge.net/DTD/sodipodi-0.dtd"
   xmlns:inkscape="http://www.inkscape.org/namespaces/inkscape"
   width="200"
   height="200"
   viewBox="0 0 52.916666 52.916666"
   version="1.1"
   id="svg4778"
   inkscape:version="1.0.2 (e86c870879, 2021-01-15, custom)"
   sodipodi:docname="nd.svg"
   inkscape:export-filename="C:\Users\guilh\OneDrive\Ambiente de Trabalho\Estudar\12º ano\AI\edição de imagem\chessPieces\src\nd.png"
   inkscape:export-xdpi="96"
   inkscape:export-ydpi="96">
  <defs
     id="defs4772">
    <linearGradient
       inkscape:collect="always"
       id="linearGradient5538">
      <stop
         style="stop-color:#9400ff;stop-opacity:1;"
         offset="0"
         id="stop5534" />
      <stop
         style="stop-color:#9400ff;stop-opacity:0;"
         offset="1"
         id="stop5536" />
    </linearGradient>
    <linearGradient
       inkscape:collect="always"
       id="linearGradient5530">
      <stop
         style="stop-color:#9400ff;stop-opacity:1;"
         offset="0"
         id="stop5526" />
      <stop
         style="stop-color:#9400ff;stop-opacity:0;"
         offset="1"
         id="stop5528" />
    </linearGradient>
    <linearGradient
       inkscape:collect="always"
       xlink:href="#linearGradient5530"
       id="linearGradient5532"
       x1="45.678101"
       y1="69.283207"
       x2="63.683802"
       y2="69.283207"
       gradientUnits="userSpaceOnUse"
       gradientTransform="translate(-31.088538,-50.648809)" />
    <linearGradient
       inkscape:collect="always"
       xlink:href="#linearGradient5538"
       id="linearGradient5540"
       x1="38.978135"
       y1="24.780714"
       x2="45.105205"
       y2="24.780714"
       gradientUnits="userSpaceOnUse" />
    <linearGradient
       inkscape:collect="always"
       xlink:href="#linearGradient5530"
       id="linearGradient5654"
       gradientUnits="userSpaceOnUse"
       x1="45.678101"
       y1="69.283207"
       x2="63.683802"
       y2="69.283207"
       gradientTransform="translate(37.041667,31.75)" />
    <linearGradient
       inkscape:collect="always"
       xlink:href="#linearGradient5538"
       id="linearGradient5656"
       gradientUnits="userSpaceOnUse"
       x1="38.978135"
       y1="24.780714"
       x2="45.105205"
       y2="24.780714" />
    <linearGradient
       inkscape:collect="always"
       xlink:href="#linearGradient5538"
       id="linearGradient5540-9"
       x1="38.978134"
       y1="24.780714"
       x2="45.105206"
       y2="24.780714"
       gradientUnits="userSpaceOnUse" />
    <linearGradient
       inkscape:collect="always"
       xlink:href="#linearGradient5530"
       id="linearGradient5747"
       gradientUnits="userSpaceOnUse"
       gradientTransform="translate(-31.741969,-51.404762)"
       x1="45.678101"
       y1="69.283207"
       x2="63.683802"
       y2="69.283207" />
    <filter
       inkscape:collect="always"
       style="color-interpolation-filters:sRGB"
       id="filter7429"
       x="-0.025290341"
       width="1.0505807"
       y="-0.031468417"
       height="1.0629368">
      <feGaussianBlur
         inkscape:collect="always"
         stdDeviation="0.18639929"
         id="feGaussianBlur7431" />
    </filter>
    <filter
       inkscape:collect="always"
       style="color-interpolation-filters:sRGB"
       id="filter7433"
       x="-0.048308657"
       width="1.0966173"
       y="-0.19021533"
       height="1.3804307">
      <feGaussianBlur
         inkscape:collect="always"
         stdDeviation="0.18639929"
         id="feGaussianBlur7435" />
    </filter>
    <filter
       inkscape:collect="always"
       style="color-interpolation-filters:sRGB"
       id="filter7437"
       x="-0.15655585"
       width="1.3131117"
       y="-0.067632125"
       height="1.1352643">
      <feGaussianBlur
         inkscape:collect="always"
         stdDeviation="0.18639929"
         id="feGaussianBlur7439" />
    </filter>
    <filter
       inkscape:collect="always"
       style="color-interpolation-filters:sRGB"
       id="filter7441"
       x="-0.030741874"
       width="1.0614837"
       y="-0.030535798"
       height="1.0610716">
      <feGaussianBlur
         inkscape:collect="always"
         stdDeviation="0.18639929"
         id="feGaussianBlur7443" />
    </filter>
    <filter
       inkscape:collect="always"
       style="color-interpolation-filters:sRGB"
       id="filter7445"
       x="-0.048308662"
       width="1.0966173"
       y="-0.15664791"
       height="1.3132958">
      <feGaussianBlur
         inkscape:collect="always"
         stdDeviation="0.18639929"
         id="feGaussianBlur7447" />
    </filter>
    <filter
       inkscape:collect="always"
       style="color-interpolation-filters:sRGB"
       id="filter7449"
       x="-0.053193805"
       width="1.1063876"
       y="-0.21041105"
       height="1.4208221">
      <feGaussianBlur
         inkscape:collect="always"
         stdDeviation="0.18639929"
         id="feGaussianBlur7451" />
    </filter>
    <filter
       inkscape:collect="always"
       style="color-interpolation-filters:sRGB"
       id="filter7453"
       x="-0.055697042"
       width="1.1113941"
       y="-0.34364754"
       height="1.6872951">
      <feGaussianBlur
         inkscape:collect="always"
         stdDeviation="0.18639929"
         id="feGaussianBlur7455" />
    </filter>
    <filter
       inkscape:collect="always"
       style="color-interpolation-filters:sRGB"
       id="filter7457"
       x="-0.10231133"
       width="1.2046227"
       y="-0.10255766"
       height="1.2051153">
      <feGaussianBlur
         inkscape:collect="always"
         stdDeviation="0.23718956"
         id="feGaussianBlur7459" />
    </filter>
    <filter
       inkscape:collect="always"
       style="color-interpolation-filters:sRGB"
       id="filter7461"
       x="-0.025290341"
       width="1.0505807"
       y="-0.031468417"
       height="1.0629368">
      <feGaussianBlur
         inkscape:collect="always"
         stdDeviation="0.18639929"
         id="feGaussianBlur7463" />
    </filter>
    <filter
       inkscape:collect="always"
       style="color-interpolation-filters:sRGB"
       id="filter7465"
       x="-0.048308657"
       width="1.0966173"
       y="-0.19021533"
       height="1.3804307">
      <feGaussianBlur
         inkscape:collect="always"
         stdDeviation="0.18639929"
         id="feGaussianBlur7467" />
    </filter>
    <filter
       inkscape:collect="always"
       style="color-interpolation-filters:sRGB"
       id="filter7469"
       x="-0.15655585"
       width="1.3131117"
       y="-0.067632125"
       height="1.1352643">
      <feGaussianBlur
         inkscape:collect="always"
         stdDeviation="0.18639929"
         id="feGaussianBlur7471" />
    </filter>
    <filter
       inkscape:collect="always"
       style="color-interpolation-filters:sRGB"
       id="filter7473"
       x="-0.030741874"
       width="1.0614837"
       y="-0.030535798"
       height="1.0610716">
      <feGaussianBlur
         inkscape:collect="always"
         stdDeviation="0.18639929"
         id="feGaussianBlur7475" />
    </filter>
    <filter
       inkscape:collect="always"
       style="color-interpolation-filters:sRGB"
       id="filter7477"
       x="-0.048308662"
       width="1.0966173"
       y="-0.15664791"
       height="1.3132958">
      <feGaussianBlur
         inkscape:collect="always"
         stdDeviation="0.18639929"
         id="feGaussianBlur7479" />
    </filter>
    <filter
       inkscape:collect="always"
       style="color-interpolation-filters:sRGB"
       id="filter7481"
       x="-0.053193805"
       width="1.1063876"
       y="-0.21041105"
       height="1.4208221">
      <feGaussianBlur
         inkscape:collect="always"
         stdDeviation="0.18639929"
         id="feGaussianBlur7483" />
    </filter>
    <filter
       inkscape:collect="always"
       style="color-interpolation-filters:sRGB"
       id="filter7485"
       x="-0.055697042"
       width="1.1113941"
       y="-0.34364754"
       height="1.6872951">
      <feGaussianBlur
         inkscape:collect="always"
         stdDeviation="0.18639929"
         id="feGaussianBlur7487" />
    </filter>
    <filter
       inkscape:collect="always"
       style="color-interpolation-filters:sRGB"
       id="filter7489"
       x="-0.10231133"
       width="1.2046227"
       y="-0.10255766"
       height="1.2051153">
      <feGaussianBlur
         inkscape:collect="always"
         stdDeviation="0.23718956"
         id="feGaussianBlur7491" />
    </filter>
  </defs>
  <sodipodi:namedview
     id="base"
     pagecolor="#ffffff"
     bordercolor="#666666"
     borderopacity="1.0"
     inkscape:pageopacity="0.0"
     inkscape:pageshadow="2"
     inkscape:zoom="2.8"
     inkscape:cx="135.31592"
     inkscape:cy="93.399736"
     inkscape:document-units="mm"
     inkscape:current-layer="layer1"
     inkscape:document-rotation="0"
     showgrid="true"
     units="px"
     showguides="true"
     inkscape:guide-bbox="true"
     inkscape:snap-global="true"
     inkscape:window-width="1738"
     inkscape:window-height="1030"
     inkscape:window-x="32"
     inkscape:window-y="0"
     inkscape:window-maximized="0">
    <inkscape:grid
       type="xygrid"
       id="grid5341" />
    <sodipodi:guide
       position="26.458333,50.270833"
       orientation="0,-1"
       id="guide5343" />
    <sodipodi:guide
       position="26.458333,1.3229167"
       orientation="0,-1"
       id="guide5345" />
    <sodipodi:guide
       position="7.9374999,25.135416"
       orientation="1,0"
       id="guide5347" />
    <sodipodi:guide
       position="46.302083,21.166666"
       orientation="1,0"
       id="guide5349" />
  </sodipodi:namedview>
  <metadata
     id="metadata4775">
    <rdf:RDF>
      <cc:Work
         rdf:about="">
        <dc:format>image/svg+xml</dc:format>
        <dc:type
           rdf:resource="http://purl.org/dc/dcmitype/StillImage" />
        <dc:title />
      </cc:Work>
    </rdf:RDF>
  </metadata>
  <g
     inkscape:label="Camada 1"
     inkscape:groupmode="layer"
     id="layer1">
    <path
       style="opacity:0.687234;fill:#000000;fill-opacity:1;stroke:#000000;stroke-width:0.264583px;stroke-linecap:butt;stroke-linejoin:miter;stroke-opacity:1"
       d="m -33.072916,66.145834 6.614583,1.322917 3.96875,3.96875 1.322917,7.9375 c 0,0 -3.039558,-2.22061 -4.960937,0 -1.921379,2.22061 -4.29948,0 -4.29948,0 0,0 -1.322916,-5.291667 0.09449,-6.52009 2.133764,-1.849262 -5.38616,5.197173 -5.38616,5.197173 0,0 -2.173579,-0.312116 -3.023806,-1.417411 -0.94494,-1.228422 4.346722,-7.843006 4.346722,-7.843006 l -1.322916,-2.645833 z"
       id="path1500-3-3-5"
       sodipodi:nodetypes="cccczcscsccc" />
    <path
       style="opacity:0.687234;fill:none;stroke:#000000;stroke-width:0.264583px;stroke-linecap:butt;stroke-linejoin:miter;stroke-opacity:1"
       d="m -30.427083,79.375 c 3.96875,5.291663 9.260417,0 9.260417,0"
       id="path1502-0-6-0" />
    <path
       style="opacity:0.687234;fill:none;stroke:#000000;stroke-width:0.264583px;stroke-linecap:butt;stroke-linejoin:miter;stroke-opacity:1"
       d="m -26.458333,82.020834 c -3.96875,2.645829 -2.645833,6.614579 -2.645833,6.614579"
       id="path1504-2-5-9" />
    <path
       style="opacity:0.687234;fill:none;stroke:#000000;stroke-width:0.264583px;stroke-linecap:butt;stroke-linejoin:miter;stroke-opacity:1"
       d="m -26.458333,82.020834 c 0,0 3.505066,-0.447195 4.724703,0.566964 1.623935,1.350345 1.889881,6.047615 1.889881,6.047615 0,0 -0.278896,1.80915 -1e-6,2.64584 0.697238,2.09171 3.96875,5.29166 3.96875,5.29166 h -14.552083 c 0,0 2.168528,-1.49351 2.645833,-2.64583 0.337506,-0.81481 0.20263,-1.78748 1e-6,-2.64583 -0.226546,-0.95967 -1.322917,-2.64584 -1.322917,-2.64584"
       id="path1506-4-5-2"
       sodipodi:nodetypes="cscsccssc" />
    <path
       style="opacity:0.687234;fill:none;stroke:#000000;stroke-width:0.264583px;stroke-linecap:butt;stroke-linejoin:miter;stroke-opacity:1"
       d="m -29.104166,88.635413 c 0,0 8.142237,-3.21279 4.866444,0 -3.275794,3.2128 4.393972,0 4.393972,0"
       id="path1508-7-7-0"
       sodipodi:nodetypes="czc" />
    <path
       style="opacity:0.687234;fill:none;stroke:#000000;stroke-width:0.264583px;stroke-linecap:butt;stroke-linejoin:miter;stroke-opacity:1"
       d="m -27.78125,92.604163 6.189361,2.12612 2.220609,-2.12612"
       id="path1510-7-2-3"
       sodipodi:nodetypes="ccc" />
    <path
       style="opacity:0.687234;fill:none;stroke:#000000;stroke-width:0.264583px;stroke-linecap:butt;stroke-linejoin:miter;stroke-opacity:1"
       d="m -28.678943,84.619423 2.221042,-1.25455 5.810952,1.3018"
       id="path1512-0-8-7"
       sodipodi:nodetypes="ccc" />
    <path
       sodipodi:type="star"
       style="opacity:0.687234;fill:#000000;fill-opacity:1;stroke:#000000;stroke-width:0.264999;stroke-opacity:1"
       id="path1514-4-4-6"
       sodipodi:sides="5"
       sodipodi:cx="42.191589"
       sodipodi:cy="24.6157"
       sodipodi:r1="2.9581316"
       sodipodi:r2="1.4790658"
       sodipodi:arg1="0.46364761"
       sodipodi:arg2="1.0919661"
       inkscape:flatsided="false"
       inkscape:rounded="0"
       inkscape:randomized="0"
       inkscape:transform-center-x="0.11485586"
       inkscape:transform-center-y="0.10969369"
       transform="matrix(0.84365918,0,0,0.73203247,-57.990228,73.967437)"
       d="m 44.837423,25.938616 -1.964367,-0.01019 -1.122028,1.612418 -0.597327,-1.871374 -1.880227,-0.568846 1.595199,-1.146379 -0.04002,-1.963985 1.583214,1.162873 1.855495,-0.644962 -0.616718,1.865073 z" />
    <path
       style="opacity:0.687234;fill:url(#linearGradient5654);fill-opacity:1;stroke:#9400ff;stroke-width:0.264583px;stroke-linecap:butt;stroke-linejoin:miter;stroke-opacity:1"
       d="M 88.635417,93.927083 95.25,95.25 l 3.96875,3.96875 1.32292,7.9375 c 0,0 -3.039561,-2.22061 -4.96094,0 -1.921379,2.22061 -4.29948,0 -4.29948,0 0,0 -1.322916,-5.29167 0.09449,-6.52009 2.133764,-1.849262 -5.38616,5.19717 -5.38616,5.19717 0,0 -2.173579,-0.31211 -3.023806,-1.41741 -0.94494,-1.22842 4.346722,-7.843004 4.346722,-7.843004 L 85.98958,93.927083 Z"
       id="path1500-3-30-2"
       sodipodi:nodetypes="cccczcscsccc" />
    <path
       style="opacity:0.687234;fill:none;fill-opacity:1;stroke:#9400ff;stroke-width:0.264583px;stroke-linecap:butt;stroke-linejoin:miter;stroke-opacity:1"
       d="m 91.28125,107.15625 c 3.96875,5.29167 9.26042,0 9.26042,0"
       id="path1502-0-0-7" />
    <path
       style="opacity:0.687234;fill:none;fill-opacity:1;stroke:#9400ff;stroke-width:0.264583px;stroke-linecap:butt;stroke-linejoin:miter;stroke-opacity:1"
       d="m 95.25,109.80208 c -3.96875,2.64584 -2.645833,6.61459 -2.645833,6.61459"
       id="path1504-2-1-4" />
    <path
       style="opacity:0.687234;fill:none;fill-opacity:1;stroke:#9400ff;stroke-width:0.264583px;stroke-linecap:butt;stroke-linejoin:miter;stroke-opacity:1"
       d="m 95.25,109.80208 c 0,0 3.505066,-0.44719 4.724703,0.56697 1.623937,1.35034 1.889877,6.04762 1.889877,6.04762 0,0 -0.27889,1.80915 0,2.64583 0.69724,2.09172 3.96875,5.29167 3.96875,5.29167 H 91.28125 c 0,0 2.168528,-1.49352 2.645833,-2.64583 0.337506,-0.81481 0.20263,-1.78748 10e-7,-2.64584 -0.226546,-0.95966 -1.322917,-2.64583 -1.322917,-2.64583"
       id="path1506-4-4-8"
       sodipodi:nodetypes="cscsccssc" />
    <path
       style="opacity:0.687234;fill:none;fill-opacity:1;stroke:#9400ff;stroke-width:0.264583px;stroke-linecap:butt;stroke-linejoin:miter;stroke-opacity:1"
       d="m 92.604167,116.41667 c 0,0 8.142233,-3.2128 4.866444,0 -3.275794,3.2128 4.393969,0 4.393969,0"
       id="path1508-7-2-0"
       sodipodi:nodetypes="czc" />
    <path
       style="opacity:0.687234;fill:none;fill-opacity:1;stroke:#9400ff;stroke-width:0.264583px;stroke-linecap:butt;stroke-linejoin:miter;stroke-opacity:1"
       d="m 93.927083,120.38542 6.189357,2.12612 2.22061,-2.12612"
       id="path1510-7-0-9"
       sodipodi:nodetypes="ccc" />
    <path
       style="opacity:0.687234;fill:none;fill-opacity:1;stroke:#9400ff;stroke-width:0.264583px;stroke-linecap:butt;stroke-linejoin:miter;stroke-opacity:1"
       d="m 93.02939,112.40067 2.221042,-1.25455 5.810948,1.3018"
       id="path1512-0-3-0"
       sodipodi:nodetypes="ccc" />
    <path
       sodipodi:type="star"
       style="opacity:0.687234;fill:url(#linearGradient5656);fill-opacity:1;stroke:#9400ff;stroke-width:0.264999;stroke-opacity:1"
       id="path1514-4-5-7"
       sodipodi:sides="5"
       sodipodi:cx="42.191589"
       sodipodi:cy="24.6157"
       sodipodi:r1="2.9581316"
       sodipodi:r2="1.4790658"
       sodipodi:arg1="0.46364761"
       sodipodi:arg2="1.0919661"
       inkscape:flatsided="false"
       inkscape:rounded="0"
       inkscape:randomized="0"
       inkscape:transform-center-x="0.11485586"
       inkscape:transform-center-y="0.10969369"
       transform="matrix(0.84365918,0,0,0.73203247,63.718105,101.74869)"
       d="m 44.837423,25.938616 -1.964367,-0.01019 -1.122028,1.612418 -0.597327,-1.871374 -1.880227,-0.568846 1.595199,-1.146379 -0.04002,-1.963985 1.583214,1.162873 1.855495,-0.644962 -0.616718,1.865073 z" />
    <g
       id="g1023"
       transform="matrix(1.5657145,0,0,1.5122767,-14.493555,-13.458655)">
      <path
         style="opacity:1;fill:#ffffff;fill-opacity:1;stroke:#ffffff;stroke-width:0.264583px;stroke-linecap:butt;stroke-linejoin:miter;stroke-opacity:1"
         d="m 21.091625,11.874796 6.614583,1.322917 3.96875,3.96875 1.322917,7.9375 c 0,0 -3.039558,-2.22061 -4.960937,0 -1.921379,2.22061 -4.29948,0 -4.29948,0 0,0 -1.322916,-5.291667 0.09449,-6.52009 2.133764,-1.849262 -5.38616,5.197173 -5.38616,5.197173 0,0 -2.173579,-0.312116 -3.023806,-1.417411 -0.94494,-1.228422 4.346722,-7.843006 4.346722,-7.843006 l -1.322916,-2.645833 z"
         id="path1500-3-3-1"
         sodipodi:nodetypes="cccczcscsccc" />
      <path
         style="opacity:1;fill:#ffffff;fill-opacity:1;stroke:#ffffff;stroke-width:0.264583px;stroke-linecap:butt;stroke-linejoin:miter;stroke-opacity:1"
         d="m 23.737458,25.103962 c 3.96875,5.291667 9.260417,0 9.260417,0"
         id="path1502-0-6-05" />
      <path
         style="opacity:1;fill:#ffffff;fill-opacity:1;stroke:#ffffff;stroke-width:0.264583px;stroke-linecap:butt;stroke-linejoin:miter;stroke-opacity:1"
         d="m 27.706208,27.749796 c -3.96875,2.645833 -2.645833,6.614583 -2.645833,6.614583"
         id="path1504-2-5-6" />
      <path
         style="opacity:1;fill:#ffffff;fill-opacity:1;stroke:#ffffff;stroke-width:0.264583px;stroke-linecap:butt;stroke-linejoin:miter;stroke-opacity:1"
         d="m 27.706208,27.749796 c 0,0 3.505066,-0.447195 4.724703,0.566964 1.623935,1.350343 1.889881,6.047619 1.889881,6.047619 0,0 -0.278896,1.809147 -10e-7,2.645833 0.697238,2.091715 3.96875,5.291667 3.96875,5.291667 H 23.737458 c 0,0 2.168528,-1.493517 2.645833,-2.645833 0.337506,-0.81481 0.20263,-1.787482 1e-6,-2.645833 -0.226546,-0.959666 -1.322917,-2.645834 -1.322917,-2.645834"
         id="path1506-4-5-9"
         sodipodi:nodetypes="cscsccssc" />
      <path
         style="opacity:1;fill:#ffffff;fill-opacity:1;stroke:#ffffff;stroke-width:0.264583px;stroke-linecap:butt;stroke-linejoin:miter;stroke-opacity:1"
         d="m 25.060375,34.364379 c 0,0 8.142237,-3.212798 4.866444,0 -3.275794,3.212798 4.393972,0 4.393972,0"
         id="path1508-7-7-8"
         sodipodi:nodetypes="czc" />
      <path
         style="opacity:1;fill:#ffffff;fill-opacity:1;stroke:#ffffff;stroke-width:0.264583px;stroke-linecap:butt;stroke-linejoin:miter;stroke-opacity:1"
         d="m 26.383291,38.333129 6.189361,2.126116 2.220609,-2.126116"
         id="path1510-7-2-7"
         sodipodi:nodetypes="ccc" />
      <path
         style="opacity:1;fill:#ffffff;fill-opacity:1;stroke:#ffffff;stroke-width:0.264583px;stroke-linecap:butt;stroke-linejoin:miter;stroke-opacity:1"
         d="m 25.485598,30.348382 2.221042,-1.254544 5.810952,1.301794"
         id="path1512-0-8-2"
         sodipodi:nodetypes="ccc" />
      <path
         sodipodi:type="star"
         style="opacity:1;fill:#ffffff;fill-opacity:1;stroke:#ffffff;stroke-width:0.264999;stroke-opacity:1"
         id="path1514-4-4-1"
         sodipodi:sides="5"
         sodipodi:cx="42.191589"
         sodipodi:cy="24.6157"
         sodipodi:r1="2.9581316"
         sodipodi:r2="1.4790658"
         sodipodi:arg1="0.46364761"
         sodipodi:arg2="1.0919661"
         inkscape:flatsided="false"
         inkscape:rounded="0"
         inkscape:randomized="0"
         inkscape:transform-center-x="0.11485586"
         inkscape:transform-center-y="0.10969369"
         transform="matrix(0.84365918,0,0,0.73203247,-3.8256869,19.696399)"
         d="m 44.837423,25.938616 -1.964367,-0.01019 -1.122028,1.612418 -0.597327,-1.871374 -1.880227,-0.568846 1.595199,-1.146379 -0.04002,-1.963985 1.583214,1.162873 1.855495,-0.644962 -0.616718,1.865073 z" />
      <path
         style="opacity:1;fill:#ffffff;fill-opacity:1;stroke:#ffffff;stroke-width:0.264583px;stroke-linecap:butt;stroke-linejoin:miter;stroke-opacity:1"
         d="m 20.430171,11.496819 6.614583,1.322917 3.96875,3.96875 1.322917,7.9375 c 0,0 -3.039558,-2.22061 -4.960937,0 -1.921379,2.22061 -4.29948,0 -4.29948,0 0,0 -1.322916,-5.291667 0.09449,-6.52009 2.133764,-1.849262 -5.38616,5.197173 -5.38616,5.197173 0,0 -2.173579,-0.312116 -3.023806,-1.417411 -0.94494,-1.228422 4.346722,-7.843006 4.346722,-7.843006 l -1.322916,-2.645833 z"
         id="path1500-3-30-53"
         sodipodi:nodetypes="cccczcscsccc" />
      <path
         style="opacity:1;fill:#ffffff;fill-opacity:1;stroke:#ffffff;stroke-width:0.264583px;stroke-linecap:butt;stroke-linejoin:miter;stroke-opacity:1"
         d="m 23.076004,24.725985 c 3.96875,5.291667 9.260417,0 9.260417,0"
         id="path1502-0-0-50" />
      <path
         style="opacity:1;fill:#ffffff;fill-opacity:1;stroke:#ffffff;stroke-width:0.264583px;stroke-linecap:butt;stroke-linejoin:miter;stroke-opacity:1"
         d="m 27.044754,27.371819 c -3.96875,2.645833 -2.645833,6.614583 -2.645833,6.614583"
         id="path1504-2-1-2" />
      <path
         style="opacity:1;fill:#ffffff;fill-opacity:1;stroke:#ffffff;stroke-width:0.264583px;stroke-linecap:butt;stroke-linejoin:miter;stroke-opacity:1"
         d="m 27.044754,27.371819 c 0,0 3.505066,-0.447195 4.724703,0.566964 1.623935,1.350343 1.889881,6.047619 1.889881,6.047619 0,0 -0.278896,1.809147 -10e-7,2.645833 0.697238,2.091715 3.96875,5.291667 3.96875,5.291667 H 23.076004 c 0,0 2.168528,-1.493517 2.645833,-2.645833 0.337506,-0.81481 0.20263,-1.787482 1e-6,-2.645833 -0.226546,-0.959666 -1.322917,-2.645834 -1.322917,-2.645834"
         id="path1506-4-4-2"
         sodipodi:nodetypes="cscsccssc" />
      <path
         style="opacity:1;fill:#ffffff;fill-opacity:1;stroke:#ffffff;stroke-width:0.264583px;stroke-linecap:butt;stroke-linejoin:miter;stroke-opacity:1"
         d="m 24.398921,33.986402 c 0,0 8.142237,-3.212798 4.866444,0 -3.275794,3.212798 4.393972,0 4.393972,0"
         id="path1508-7-2-07"
         sodipodi:nodetypes="czc" />
      <path
         style="opacity:1;fill:#ffffff;fill-opacity:1;stroke:#ffffff;stroke-width:0.264583px;stroke-linecap:butt;stroke-linejoin:miter;stroke-opacity:1"
         d="m 25.721837,37.955152 6.189361,2.126116 2.220609,-2.126116"
         id="path1510-7-0-5"
         sodipodi:nodetypes="ccc" />
      <path
         style="opacity:1;fill:#ffffff;fill-opacity:1;stroke:#ffffff;stroke-width:0.264583px;stroke-linecap:butt;stroke-linejoin:miter;stroke-opacity:1"
         d="m 24.824144,29.970405 2.221042,-1.254544 5.810952,1.301794"
         id="path1512-0-3-1"
         sodipodi:nodetypes="ccc" />
      <path
         sodipodi:type="star"
         style="opacity:1;fill:#ffffff;fill-opacity:1;stroke:#ffffff;stroke-width:0.264999;stroke-opacity:1"
         id="path1514-4-5-4"
         sodipodi:sides="5"
         sodipodi:cx="42.191589"
         sodipodi:cy="24.6157"
         sodipodi:r1="2.9581316"
         sodipodi:r2="1.4790658"
         sodipodi:arg1="0.46364761"
         sodipodi:arg2="1.0919661"
         inkscape:flatsided="false"
         inkscape:rounded="0"
         inkscape:randomized="0"
         inkscape:transform-center-x="0.11485586"
         inkscape:transform-center-y="0.10969369"
         transform="matrix(0.84365918,0,0,0.73203247,-4.4871409,19.318422)"
         d="m 44.837423,25.938616 -1.964367,-0.01019 -1.122028,1.612418 -0.597327,-1.871374 -1.880227,-0.568846 1.595199,-1.146379 -0.04002,-1.963985 1.583214,1.162873 1.855495,-0.644962 -0.616718,1.865073 z" />
      <path
         style="opacity:1;fill:#ffffff;fill-opacity:1;stroke:#ffffff;stroke-width:0.264583px;stroke-linecap:butt;stroke-linejoin:miter;stroke-opacity:1"
         d="m 20.438194,11.118843 6.614583,1.322917 3.96875,3.96875 1.322917,7.9375 c 0,0 -3.039558,-2.22061 -4.960937,0 -1.921379,2.22061 -4.29948,0 -4.29948,0 0,0 -1.322916,-5.291667 0.09449,-6.52009 2.133764,-1.849262 -5.38616,5.197173 -5.38616,5.197173 0,0 -2.173579,-0.312116 -3.023806,-1.417411 -0.94494,-1.228422 4.346722,-7.843006 4.346722,-7.843006 l -1.322916,-2.645833 z"
         id="path1500-3-3-3-1"
         sodipodi:nodetypes="cccczcscsccc" />
      <path
         style="opacity:1;fill:#ffffff;fill-opacity:1;stroke:#ffffff;stroke-width:0.264583px;stroke-linecap:butt;stroke-linejoin:miter;stroke-opacity:1"
         d="m 23.084027,24.348009 c 3.96875,5.291667 9.260417,0 9.260417,0"
         id="path1502-0-6-2-1" />
      <path
         style="opacity:1;fill:#ffffff;fill-opacity:1;stroke:#ffffff;stroke-width:0.264583px;stroke-linecap:butt;stroke-linejoin:miter;stroke-opacity:1"
         d="m 27.052777,26.993843 c -3.96875,2.645833 -2.645833,6.614583 -2.645833,6.614583"
         id="path1504-2-5-7-7" />
      <path
         style="opacity:1;fill:#ffffff;fill-opacity:1;stroke:#ffffff;stroke-width:0.264583px;stroke-linecap:butt;stroke-linejoin:miter;stroke-opacity:1"
         d="m 27.052777,26.993843 c 0,0 3.505066,-0.447195 4.724703,0.566964 1.623935,1.350343 1.889881,6.047619 1.889881,6.047619 0,0 -0.278896,1.809147 -10e-7,2.645833 0.697238,2.091715 3.96875,5.291667 3.96875,5.291667 H 23.084027 c 0,0 2.168528,-1.493517 2.645833,-2.645833 0.337506,-0.81481 0.20263,-1.787482 1e-6,-2.645833 -0.226546,-0.959666 -1.322917,-2.645834 -1.322917,-2.645834"
         id="path1506-4-5-4-0"
         sodipodi:nodetypes="cscsccssc" />
      <path
         style="opacity:1;fill:#ffffff;fill-opacity:1;stroke:#ffffff;stroke-width:0.264583px;stroke-linecap:butt;stroke-linejoin:miter;stroke-opacity:1"
         d="m 24.406944,33.608426 c 0,0 8.142237,-3.212798 4.866444,0 -3.275794,3.212798 4.393972,0 4.393972,0"
         id="path1508-7-7-9-2"
         sodipodi:nodetypes="czc" />
      <path
         style="opacity:1;fill:#ffffff;fill-opacity:1;stroke:#ffffff;stroke-width:0.264583px;stroke-linecap:butt;stroke-linejoin:miter;stroke-opacity:1"
         d="m 25.72986,37.577176 6.189361,2.126116 2.220609,-2.126116"
         id="path1510-7-2-9-3"
         sodipodi:nodetypes="ccc" />
      <path
         style="opacity:1;fill:#ffffff;fill-opacity:1;stroke:#ffffff;stroke-width:0.264583px;stroke-linecap:butt;stroke-linejoin:miter;stroke-opacity:1"
         d="m 24.832167,29.592429 2.221042,-1.254544 5.810952,1.301794"
         id="path1512-0-8-3-2"
         sodipodi:nodetypes="ccc" />
      <path
         sodipodi:type="star"
         style="opacity:1;fill:#ffffff;fill-opacity:1;stroke:#ffffff;stroke-width:0.264999;stroke-opacity:1"
         id="path1514-4-4-7-9"
         sodipodi:sides="5"
         sodipodi:cx="42.191589"
         sodipodi:cy="24.6157"
         sodipodi:r1="2.9581316"
         sodipodi:r2="1.4790658"
         sodipodi:arg1="0.46364761"
         sodipodi:arg2="1.0919661"
         inkscape:flatsided="false"
         inkscape:rounded="0"
         inkscape:randomized="0"
         inkscape:transform-center-x="0.11485586"
         inkscape:transform-center-y="0.10969369"
         transform="matrix(0.84365918,0,0,0.73203247,-4.4791179,18.940446)"
         d="m 44.837423,25.938616 -1.964367,-0.01019 -1.122028,1.612418 -0.597327,-1.871374 -1.880227,-0.568846 1.595199,-1.146379 -0.04002,-1.963985 1.583214,1.162873 1.855495,-0.644962 -0.616718,1.865073 z" />
      <path
         style="opacity:1;fill:#ffffff;fill-opacity:1;stroke:#ffffff;stroke-width:0.264583px;stroke-linecap:butt;stroke-linejoin:miter;stroke-opacity:1"
         d="m 19.77674,10.740866 6.614583,1.322917 3.96875,3.96875 1.322917,7.9375 c 0,0 -3.039558,-2.22061 -4.960937,0 -1.921379,2.22061 -4.29948,0 -4.29948,0 0,0 -1.322916,-5.291667 0.09449,-6.52009 2.133764,-1.849262 -5.38616,5.197173 -5.38616,5.197173 0,0 -2.173579,-0.312116 -3.023806,-1.417411 -0.94494,-1.228422 4.346722,-7.843006 4.346722,-7.843006 l -1.322916,-2.645833 z"
         id="path1500-3-30-5-9"
         sodipodi:nodetypes="cccczcscsccc" />
      <path
         style="opacity:1;fill:#ffffff;fill-opacity:1;stroke:#ffffff;stroke-width:0.264583px;stroke-linecap:butt;stroke-linejoin:miter;stroke-opacity:1"
         d="m 22.422573,23.970032 c 3.96875,5.291667 9.260417,0 9.260417,0"
         id="path1502-0-0-5-0" />
      <path
         style="opacity:1;fill:#ffffff;fill-opacity:1;stroke:#ffffff;stroke-width:0.264583px;stroke-linecap:butt;stroke-linejoin:miter;stroke-opacity:1"
         d="m 26.391323,26.615866 c -3.96875,2.645833 -2.645833,6.614583 -2.645833,6.614583"
         id="path1504-2-1-42-9" />
      <path
         style="opacity:1;fill:#ffffff;fill-opacity:1;stroke:#ffffff;stroke-width:0.264583px;stroke-linecap:butt;stroke-linejoin:miter;stroke-opacity:1"
         d="m 26.391323,26.615866 c 0,0 3.505066,-0.447195 4.724703,0.566964 1.623935,1.350343 1.889881,6.047619 1.889881,6.047619 0,0 -0.278896,1.809147 -10e-7,2.645833 0.697238,2.091715 3.96875,5.291667 3.96875,5.291667 H 22.422573 c 0,0 2.168528,-1.493517 2.645833,-2.645833 0.337506,-0.81481 0.20263,-1.787482 1e-6,-2.645833 -0.226546,-0.959666 -1.322917,-2.645834 -1.322917,-2.645834"
         id="path1506-4-4-9-1"
         sodipodi:nodetypes="cscsccssc" />
      <path
         style="opacity:1;fill:#ffffff;fill-opacity:1;stroke:#ffffff;stroke-width:0.264583px;stroke-linecap:butt;stroke-linejoin:miter;stroke-opacity:1"
         d="m 23.74549,33.230449 c 0,0 8.142237,-3.212798 4.866444,0 -3.275794,3.212798 4.393972,0 4.393972,0"
         id="path1508-7-2-4-9"
         sodipodi:nodetypes="czc" />
      <path
         style="opacity:1;fill:#ffffff;fill-opacity:1;stroke:#ffffff;stroke-width:0.264583px;stroke-linecap:butt;stroke-linejoin:miter;stroke-opacity:1"
         d="m 25.068406,37.199199 6.189361,2.126116 2.220609,-2.126116"
         id="path1510-7-0-7-3"
         sodipodi:nodetypes="ccc" />
      <path
         style="opacity:1;fill:#ffffff;fill-opacity:1;stroke:#ffffff;stroke-width:0.264583px;stroke-linecap:butt;stroke-linejoin:miter;stroke-opacity:1"
         d="m 24.170713,29.214452 2.221042,-1.254544 5.810952,1.301794"
         id="path1512-0-3-2-7"
         sodipodi:nodetypes="ccc" />
      <path
         sodipodi:type="star"
         style="opacity:1;fill:#ffffff;fill-opacity:1;stroke:#ffffff;stroke-width:0.264999;stroke-opacity:1"
         id="path1514-4-5-3-7"
         sodipodi:sides="5"
         sodipodi:cx="42.191589"
         sodipodi:cy="24.6157"
         sodipodi:r1="2.9581316"
         sodipodi:r2="1.4790658"
         sodipodi:arg1="0.46364761"
         sodipodi:arg2="1.0919661"
         inkscape:flatsided="false"
         inkscape:rounded="0"
         inkscape:randomized="0"
         inkscape:transform-center-x="0.11485586"
         inkscape:transform-center-y="0.10969369"
         transform="matrix(0.84365918,0,0,0.73203247,-5.1405719,18.562469)"
         d="m 44.837423,25.938616 -1.964367,-0.01019 -1.122028,1.612418 -0.597327,-1.871374 -1.880227,-0.568846 1.595199,-1.146379 -0.04002,-1.963985 1.583214,1.162873 1.855495,-0.644962 -0.616718,1.865073 z" />
      <path
         style="opacity:0.687234;fill:#000000;fill-opacity:1;stroke:#000000;stroke-width:0.264583px;stroke-linecap:butt;stroke-linejoin:miter;stroke-opacity:1"
         d="m 21.166667,11.906251 6.614583,1.322917 3.96875,3.96875 1.322917,7.9375 c 0,0 -3.039558,-2.22061 -4.960937,0 -1.921379,2.22061 -4.29948,0 -4.29948,0 0,0 -1.322916,-5.291667 0.09449,-6.52009 2.133764,-1.849262 -5.38616,5.197173 -5.38616,5.197173 0,0 -2.173579,-0.312116 -3.023806,-1.417411 -0.94494,-1.228422 4.346722,-7.843006 4.346722,-7.843006 L 18.52083,11.906251 Z"
         id="path1500-3-3"
         sodipodi:nodetypes="cccczcscsccc" />
      <path
         style="opacity:0.687234;fill:none;stroke:#000000;stroke-width:0.264583px;stroke-linecap:butt;stroke-linejoin:miter;stroke-opacity:1"
         d="m 23.8125,25.135417 c 3.96875,5.291667 9.260417,0 9.260417,0"
         id="path1502-0-6" />
      <path
         style="opacity:0.687234;fill:none;stroke:#000000;stroke-width:0.264583px;stroke-linecap:butt;stroke-linejoin:miter;stroke-opacity:1"
         d="m 27.78125,27.781251 c -3.96875,2.645833 -2.645833,6.614583 -2.645833,6.614583"
         id="path1504-2-5" />
      <path
         style="opacity:0.687234;fill:none;stroke:#000000;stroke-width:0.264583px;stroke-linecap:butt;stroke-linejoin:miter;stroke-opacity:1"
         d="m 27.78125,27.781251 c 0,0 3.505066,-0.447195 4.724703,0.566964 1.623935,1.350343 1.889881,6.047619 1.889881,6.047619 0,0 -0.278896,1.809147 -10e-7,2.645833 0.697238,2.091715 3.96875,5.291667 3.96875,5.291667 H 23.8125 c 0,0 2.168528,-1.493517 2.645833,-2.645833 0.337506,-0.81481 0.20263,-1.787482 1e-6,-2.645833 -0.226546,-0.959666 -1.322917,-2.645834 -1.322917,-2.645834"
         id="path1506-4-5"
         sodipodi:nodetypes="cscsccssc" />
      <path
         style="opacity:0.687234;fill:none;stroke:#000000;stroke-width:0.264583px;stroke-linecap:butt;stroke-linejoin:miter;stroke-opacity:1"
         d="m 25.135417,34.395834 c 0,0 8.142237,-3.212798 4.866444,0 -3.275794,3.212798 4.393972,0 4.393972,0"
         id="path1508-7-7"
         sodipodi:nodetypes="czc" />
      <path
         style="opacity:0.687234;fill:none;stroke:#000000;stroke-width:0.264583px;stroke-linecap:butt;stroke-linejoin:miter;stroke-opacity:1"
         d="m 26.458333,38.364584 6.189361,2.126116 2.220609,-2.126116"
         id="path1510-7-2"
         sodipodi:nodetypes="ccc" />
      <path
         style="opacity:0.687234;fill:none;stroke:#000000;stroke-width:0.264583px;stroke-linecap:butt;stroke-linejoin:miter;stroke-opacity:1"
         d="m 25.56064,30.379837 2.221042,-1.254544 5.810952,1.301794"
         id="path1512-0-8"
         sodipodi:nodetypes="ccc" />
      <path
         sodipodi:type="star"
         style="opacity:0.687234;fill:#000000;fill-opacity:1;stroke:#000000;stroke-width:0.264999;stroke-opacity:1"
         id="path1514-4-4"
         sodipodi:sides="5"
         sodipodi:cx="42.191589"
         sodipodi:cy="24.6157"
         sodipodi:r1="2.9581316"
         sodipodi:r2="1.4790658"
         sodipodi:arg1="0.46364761"
         sodipodi:arg2="1.0919661"
         inkscape:flatsided="false"
         inkscape:rounded="0"
         inkscape:randomized="0"
         inkscape:transform-center-x="0.11485586"
         inkscape:transform-center-y="0.10969369"
         transform="matrix(0.84365918,0,0,0.73203247,-3.7506453,19.727854)"
         d="m 44.837423,25.938616 -1.964367,-0.01019 -1.122028,1.612418 -0.597327,-1.871374 -1.880227,-0.568846 1.595199,-1.146379 -0.04002,-1.963985 1.583214,1.162873 1.855495,-0.644962 -0.616718,1.865073 z" />
      <path
         style="opacity:0.687234;fill:url(#linearGradient5532);fill-opacity:1;stroke:#9400ff;stroke-width:0.264583px;stroke-linecap:butt;stroke-linejoin:miter;stroke-opacity:1"
         d="m 20.505213,11.528274 6.614583,1.322917 3.96875,3.96875 1.322917,7.9375 c 0,0 -3.039558,-2.22061 -4.960937,0 -1.921379,2.22061 -4.29948,0 -4.29948,0 0,0 -1.322916,-5.291667 0.09449,-6.52009 2.133764,-1.849262 -5.38616,5.197173 -5.38616,5.197173 0,0 -2.173579,-0.312116 -3.023806,-1.417411 -0.94494,-1.228422 4.346722,-7.843006 4.346722,-7.843006 l -1.322916,-2.645833 z"
         id="path1500-3-30"
         sodipodi:nodetypes="cccczcscsccc" />
      <path
         style="opacity:0.687234;fill:none;fill-opacity:1;stroke:#9400ff;stroke-width:0.264583px;stroke-linecap:butt;stroke-linejoin:miter;stroke-opacity:1"
         d="m 23.151046,24.75744 c 3.96875,5.291667 9.260417,0 9.260417,0"
         id="path1502-0-0" />
      <path
         style="opacity:0.687234;fill:none;fill-opacity:1;stroke:#9400ff;stroke-width:0.264583px;stroke-linecap:butt;stroke-linejoin:miter;stroke-opacity:1"
         d="m 27.119796,27.403274 c -3.96875,2.645833 -2.645833,6.614583 -2.645833,6.614583"
         id="path1504-2-1" />
      <path
         style="opacity:0.687234;fill:none;fill-opacity:1;stroke:#9400ff;stroke-width:0.264583px;stroke-linecap:butt;stroke-linejoin:miter;stroke-opacity:1"
         d="m 27.119796,27.403274 c 0,0 3.505066,-0.447195 4.724703,0.566964 1.623935,1.350343 1.889881,6.047619 1.889881,6.047619 0,0 -0.278896,1.809147 -1e-6,2.645833 0.697238,2.091715 3.96875,5.291667 3.96875,5.291667 H 23.151046 c 0,0 2.168528,-1.493517 2.645833,-2.645833 0.337506,-0.81481 0.20263,-1.787482 1e-6,-2.645833 -0.226546,-0.959666 -1.322917,-2.645834 -1.322917,-2.645834"
         id="path1506-4-4"
         sodipodi:nodetypes="cscsccssc" />
      <path
         style="opacity:0.687234;fill:none;fill-opacity:1;stroke:#9400ff;stroke-width:0.264583px;stroke-linecap:butt;stroke-linejoin:miter;stroke-opacity:1"
         d="m 24.473963,34.017857 c 0,0 8.142237,-3.212798 4.866444,0 -3.275794,3.212798 4.393972,0 4.393972,0"
         id="path1508-7-2"
         sodipodi:nodetypes="czc" />
      <path
         style="opacity:0.687234;fill:none;fill-opacity:1;stroke:#9400ff;stroke-width:0.264583px;stroke-linecap:butt;stroke-linejoin:miter;stroke-opacity:1"
         d="m 25.796879,37.986607 6.189361,2.126116 2.220609,-2.126116"
         id="path1510-7-0"
         sodipodi:nodetypes="ccc" />
      <path
         style="opacity:0.687234;fill:none;fill-opacity:1;stroke:#9400ff;stroke-width:0.264583px;stroke-linecap:butt;stroke-linejoin:miter;stroke-opacity:1"
         d="m 24.899186,30.00186 2.221042,-1.254544 5.810952,1.301794"
         id="path1512-0-3"
         sodipodi:nodetypes="ccc" />
      <path
         sodipodi:type="star"
         style="opacity:0.687234;fill:url(#linearGradient5540);fill-opacity:1;stroke:#9400ff;stroke-width:0.264999;stroke-opacity:1"
         id="path1514-4-5"
         sodipodi:sides="5"
         sodipodi:cx="42.191589"
         sodipodi:cy="24.6157"
         sodipodi:r1="2.9581316"
         sodipodi:r2="1.4790658"
         sodipodi:arg1="0.46364761"
         sodipodi:arg2="1.0919661"
         inkscape:flatsided="false"
         inkscape:rounded="0"
         inkscape:randomized="0"
         inkscape:transform-center-x="0.11485586"
         inkscape:transform-center-y="0.10969369"
         transform="matrix(0.84365918,0,0,0.73203247,-4.4120994,19.349877)"
         d="m 44.837423,25.938616 -1.964367,-0.01019 -1.122028,1.612418 -0.597327,-1.871374 -1.880227,-0.568846 1.595199,-1.146379 -0.04002,-1.963985 1.583214,1.162873 1.855495,-0.644962 -0.616718,1.865073 z" />
      <path
         style="opacity:1;fill:#000000;fill-opacity:1;stroke:#000000;stroke-width:0.264583px;stroke-linecap:butt;stroke-linejoin:miter;stroke-opacity:1;filter:url(#filter7429)"
         d="m 20.513236,11.150298 6.614583,1.322917 3.96875,3.96875 1.322917,7.9375 c 0,0 -3.039558,-2.22061 -4.960937,0 -1.921379,2.22061 -4.29948,0 -4.29948,0 0,0 -1.322916,-5.291667 0.09449,-6.52009 2.133764,-1.849262 -5.38616,5.197173 -5.38616,5.197173 0,0 -2.173579,-0.312116 -3.023806,-1.417411 -0.94494,-1.228422 4.346722,-7.843006 4.346722,-7.843006 l -1.322916,-2.645833 z"
         id="path1500-3-3-3"
         sodipodi:nodetypes="cccczcscsccc" />
      <path
         style="opacity:1;fill:none;stroke:#000000;stroke-width:0.264583px;stroke-linecap:butt;stroke-linejoin:miter;stroke-opacity:1;filter:url(#filter7433)"
         d="m 23.159069,24.379464 c 3.96875,5.291667 9.260417,0 9.260417,0"
         id="path1502-0-6-2" />
      <path
         style="opacity:1;fill:none;stroke:#000000;stroke-width:0.264583px;stroke-linecap:butt;stroke-linejoin:miter;stroke-opacity:1;filter:url(#filter7437)"
         d="m 27.127819,27.025298 c -3.96875,2.645833 -2.645833,6.614583 -2.645833,6.614583"
         id="path1504-2-5-7" />
      <path
         style="opacity:1;fill:none;stroke:#000000;stroke-width:0.264583px;stroke-linecap:butt;stroke-linejoin:miter;stroke-opacity:1;filter:url(#filter7441)"
         d="m 27.127819,27.025298 c 0,0 3.505066,-0.447195 4.724703,0.566964 1.623935,1.350343 1.889881,6.047619 1.889881,6.047619 0,0 -0.278896,1.809147 -1e-6,2.645833 0.697238,2.091715 3.96875,5.291667 3.96875,5.291667 H 23.159069 c 0,0 2.168528,-1.493517 2.645833,-2.645833 0.337506,-0.81481 0.20263,-1.787482 1e-6,-2.645833 -0.226546,-0.959666 -1.322917,-2.645834 -1.322917,-2.645834"
         id="path1506-4-5-4"
         sodipodi:nodetypes="cscsccssc" />
      <path
         style="opacity:1;fill:none;stroke:#000000;stroke-width:0.264583px;stroke-linecap:butt;stroke-linejoin:miter;stroke-opacity:1;filter:url(#filter7445)"
         d="m 24.481986,33.639881 c 0,0 8.142237,-3.212798 4.866444,0 -3.275794,3.212798 4.393972,0 4.393972,0"
         id="path1508-7-7-9"
         sodipodi:nodetypes="czc" />
      <path
         style="opacity:1;fill:none;stroke:#000000;stroke-width:0.264583px;stroke-linecap:butt;stroke-linejoin:miter;stroke-opacity:1;filter:url(#filter7449)"
         d="m 25.804902,37.608631 6.189361,2.126116 2.220609,-2.126116"
         id="path1510-7-2-9"
         sodipodi:nodetypes="ccc" />
      <path
         style="opacity:1;fill:none;stroke:#000000;stroke-width:0.264583px;stroke-linecap:butt;stroke-linejoin:miter;stroke-opacity:1;filter:url(#filter7453)"
         d="m 24.907209,29.623884 2.221042,-1.254544 5.810952,1.301794"
         id="path1512-0-8-3"
         sodipodi:nodetypes="ccc" />
      <path
         sodipodi:type="star"
         style="opacity:1;fill:#000000;fill-opacity:1;stroke:#000000;stroke-width:0.264999;stroke-opacity:1;filter:url(#filter7457)"
         id="path1514-4-4-7"
         sodipodi:sides="5"
         sodipodi:cx="42.191589"
         sodipodi:cy="24.6157"
         sodipodi:r1="2.9581316"
         sodipodi:r2="1.4790658"
         sodipodi:arg1="0.46364761"
         sodipodi:arg2="1.0919661"
         inkscape:flatsided="false"
         inkscape:rounded="0"
         inkscape:randomized="0"
         inkscape:transform-center-x="0.11485586"
         inkscape:transform-center-y="0.10969369"
         transform="matrix(0.84365918,0,0,0.73203247,-4.4040761,18.971901)"
         d="m 44.837423,25.938616 -1.964367,-0.01019 -1.122028,1.612418 -0.597327,-1.871374 -1.880227,-0.568846 1.595199,-1.146379 -0.04002,-1.963985 1.583214,1.162873 1.855495,-0.644962 -0.616718,1.865073 z" />
      <path
         style="opacity:1;fill:url(#linearGradient5747);fill-opacity:1;stroke:#9400ff;stroke-width:0.264583px;stroke-linecap:butt;stroke-linejoin:miter;stroke-opacity:1;filter:url(#filter7461)"
         d="m 19.851782,10.772321 6.614583,1.322917 3.96875,3.96875 1.322917,7.9375 c 0,0 -3.039558,-2.22061 -4.960937,0 -1.921379,2.22061 -4.29948,0 -4.29948,0 0,0 -1.322916,-5.291667 0.09449,-6.52009 2.133764,-1.849262 -5.38616,5.197173 -5.38616,5.197173 0,0 -2.173579,-0.312116 -3.023806,-1.417411 -0.94494,-1.228422 4.346722,-7.843006 4.346722,-7.843006 l -1.322916,-2.645833 z"
         id="path1500-3-30-5"
         sodipodi:nodetypes="cccczcscsccc" />
      <path
         style="opacity:1;fill:none;fill-opacity:1;stroke:#9400ff;stroke-width:0.264583px;stroke-linecap:butt;stroke-linejoin:miter;stroke-opacity:1;filter:url(#filter7465)"
         d="m 22.497615,24.001487 c 3.96875,5.291667 9.260417,0 9.260417,0"
         id="path1502-0-0-5" />
      <path
         style="opacity:1;fill:none;fill-opacity:1;stroke:#9400ff;stroke-width:0.264583px;stroke-linecap:butt;stroke-linejoin:miter;stroke-opacity:1;filter:url(#filter7469)"
         d="m 26.466365,26.647321 c -3.96875,2.645833 -2.645833,6.614583 -2.645833,6.614583"
         id="path1504-2-1-42" />
      <path
         style="opacity:1;fill:none;fill-opacity:1;stroke:#9400ff;stroke-width:0.264583px;stroke-linecap:butt;stroke-linejoin:miter;stroke-opacity:1;filter:url(#filter7473)"
         d="m 26.466365,26.647321 c 0,0 3.505066,-0.447195 4.724703,0.566964 1.623935,1.350343 1.889881,6.047619 1.889881,6.047619 0,0 -0.278896,1.809147 -10e-7,2.645833 0.697238,2.091715 3.96875,5.291667 3.96875,5.291667 H 22.497615 c 0,0 2.168528,-1.493517 2.645833,-2.645833 0.337506,-0.81481 0.20263,-1.787482 1e-6,-2.645833 -0.226546,-0.959666 -1.322917,-2.645834 -1.322917,-2.645834"
         id="path1506-4-4-9"
         sodipodi:nodetypes="cscsccssc" />
      <path
         style="opacity:1;fill:none;fill-opacity:1;stroke:#9400ff;stroke-width:0.264583px;stroke-linecap:butt;stroke-linejoin:miter;stroke-opacity:1;filter:url(#filter7477)"
         d="m 23.820532,33.261904 c 0,0 8.142237,-3.212798 4.866444,0 -3.275794,3.212798 4.393972,0 4.393972,0"
         id="path1508-7-2-4"
         sodipodi:nodetypes="czc" />
      <path
         style="opacity:1;fill:none;fill-opacity:1;stroke:#9400ff;stroke-width:0.264583px;stroke-linecap:butt;stroke-linejoin:miter;stroke-opacity:1;filter:url(#filter7481)"
         d="m 25.143448,37.230654 6.189361,2.126116 2.220609,-2.126116"
         id="path1510-7-0-7"
         sodipodi:nodetypes="ccc" />
      <path
         style="opacity:1;fill:none;fill-opacity:1;stroke:#9400ff;stroke-width:0.264583px;stroke-linecap:butt;stroke-linejoin:miter;stroke-opacity:1;filter:url(#filter7485)"
         d="m 24.245755,29.245907 2.221042,-1.254544 5.810952,1.301794"
         id="path1512-0-3-2"
         sodipodi:nodetypes="ccc" />
      <path
         sodipodi:type="star"
         style="opacity:1;fill:url(#linearGradient5540-9);fill-opacity:1;stroke:#9400ff;stroke-width:0.264999;stroke-opacity:1;filter:url(#filter7489)"
         id="path1514-4-5-3"
         sodipodi:sides="5"
         sodipodi:cx="42.191589"
         sodipodi:cy="24.6157"
         sodipodi:r1="2.9581316"
         sodipodi:r2="1.4790658"
         sodipodi:arg1="0.46364761"
         sodipodi:arg2="1.0919661"
         inkscape:flatsided="false"
         inkscape:rounded="0"
         inkscape:randomized="0"
         inkscape:transform-center-x="0.11485586"
         inkscape:transform-center-y="0.10969369"
         transform="matrix(0.84365918,0,0,0.73203247,-5.0655301,18.593924)"
         d="m 44.837423,25.938616 -1.964367,-0.01019 -1.122028,1.612418 -0.597327,-1.871374 -1.880227,-0.568846 1.595199,-1.146379 -0.04002,-1.963985 1.583214,1.162873 1.855495,-0.644962 -0.616718,1.865073 z" />
    </g>
  </g>
</svg>
